<svg width="484" height="485" viewBox="0 0 484 485" fill="none" xmlns="http://www.w3.org/2000/svg">
<circle cx="241.858" cy="242.358" r="238.23" fill="#F7F6EA" stroke="#4A2E51" stroke-width="7.25575"/>
<path d="M334.819 176.466C335.145 178.362 336.354 179.988 338.074 180.848L345.001 184.312L338.094 187.765C336.454 188.585 335.282 190.102 334.892 191.88L334.825 192.239L333.941 197.886L332.717 191.98C332.342 190.167 331.156 188.626 329.501 187.798L322.528 184.312L329.527 180.813C331.145 180.004 332.316 178.512 332.718 176.748L333.942 171.376L334.819 176.466Z" stroke="#3B1F43" stroke-width="7.25575"/>
<path d="M198.12 114.138C198.505 115.801 199.575 117.224 201.066 118.056L208.287 122.085L201.587 125.047C199.889 125.797 198.636 127.284 198.176 129.069L198.095 129.43L197.06 134.785L196.025 129.43L195.944 129.069C195.484 127.284 194.231 125.798 192.533 125.047L185.831 122.085L193.054 118.056C194.544 117.224 195.614 115.801 195.998 114.138L197.059 109.548L198.12 114.138Z" stroke="#3B1F43" stroke-width="7.25575"/>
<path d="M295.067 220.591C295.067 220.591 295.489 238.288 295.067 249.614C294.36 268.585 288.476 279.082 290.23 297.986C291.86 315.555 304.175 323.973 302.323 341.52C300.682 357.068 289.314 362.664 285.393 377.799C284.185 382.461 282.974 389.892 282.974 389.892" stroke="#3B1F43" stroke-width="7.25575" stroke-linecap="round"/>
<path d="M264.874 316.273C265.227 318.11 267.002 319.312 268.838 318.959C270.675 318.606 271.877 316.832 271.524 314.995L268.199 315.634L264.874 316.273ZM266.044 296.062L269.43 296.062L266.044 296.062ZM283.243 177.881L279.902 177.329L283.243 177.881ZM268.199 315.634C271.524 314.995 271.524 314.995 271.524 314.995C271.524 314.995 271.524 314.995 271.524 314.995C271.524 314.995 271.524 314.995 271.524 314.995C271.524 314.994 271.524 314.993 271.524 314.991C271.523 314.986 271.521 314.979 271.52 314.97C271.516 314.951 271.51 314.922 271.503 314.882C271.488 314.803 271.466 314.684 271.438 314.528C271.381 314.216 271.299 313.758 271.2 313.181C271.003 312.025 270.739 310.397 270.475 308.513C269.943 304.712 269.43 300.003 269.43 296.062L266.044 296.062L262.658 296.062C262.658 300.479 263.223 305.556 263.768 309.452C264.043 311.416 264.318 313.114 264.525 314.322C264.628 314.926 264.715 315.41 264.776 315.744C264.806 315.911 264.83 316.041 264.847 316.13C264.855 316.175 264.862 316.209 264.866 316.233C264.869 316.245 264.871 316.255 264.872 316.261C264.872 316.265 264.873 316.267 264.873 316.269C264.874 316.27 264.874 316.271 264.874 316.272C264.874 316.272 264.874 316.272 264.874 316.273C264.874 316.273 264.874 316.273 268.199 315.634ZM266.044 296.062L269.43 296.062C269.43 285.586 271.84 267.434 275.229 246.091C278.61 224.801 282.893 200.752 286.584 178.433L283.243 177.881L279.902 177.329C276.237 199.495 271.92 223.745 268.541 245.029C265.169 266.26 262.658 284.955 262.658 296.062L266.044 296.062ZM283.243 177.881L286.584 178.433C288.682 165.743 293.971 148.843 298.802 134.973C301.207 128.069 303.479 121.97 305.15 117.599C305.985 115.414 306.669 113.661 307.144 112.457C307.381 111.855 307.566 111.39 307.692 111.076C307.754 110.92 307.802 110.801 307.834 110.722C307.85 110.682 307.862 110.653 307.869 110.633C307.873 110.623 307.876 110.616 307.878 110.611C307.879 110.609 307.88 110.607 307.88 110.606C307.88 110.606 307.88 110.606 307.881 110.605C307.881 110.605 307.881 110.605 304.741 109.336C301.602 108.067 301.602 108.068 301.602 108.068C301.602 108.068 301.601 108.069 301.601 108.07C301.6 108.071 301.6 108.074 301.598 108.077C301.596 108.082 301.593 108.09 301.588 108.101C301.58 108.123 301.567 108.155 301.55 108.196C301.517 108.28 301.467 108.403 301.403 108.564C301.274 108.887 301.085 109.361 300.844 109.973C300.361 111.197 299.668 112.972 298.824 115.181C297.136 119.599 294.839 125.763 292.407 132.745C287.564 146.647 282.103 164.019 279.902 177.329L283.243 177.881Z" fill="#3B1F43"/>
<path d="M235.632 307.013L240.979 300.312C244.723 295.621 247.152 290.019 248.018 284.08L260.092 201.287C262.445 185.155 265.951 169.216 270.794 153.649C277.804 131.113 288.072 99.1403 292.649 89.9875C295.067 85.1504 307.514 73.9697 319.253 75.476C330.534 76.9236 337.905 83.8861 341.02 94.8247C344.292 106.315 342.199 118.852 331.346 123.848C322.596 127.875 308.963 127.668 304.741 119.011C301.328 112.01 307.16 102.08 311.997 99.6618C316.547 97.3871 324.09 104.499 324.09 104.499" stroke="#3B1F43" stroke-width="7.25575" stroke-linecap="round"/>
<path d="M239.44 220.591H195.905" stroke="#3B1F43" stroke-width="7.25575" stroke-linecap="round"/>
<path d="M232.184 239.94H193.487" stroke="#3B1F43" stroke-width="7.25575" stroke-linecap="round"/>
<path d="M163.793 331.918C163.793 331.918 169.301 389.892 220.091 389.892C278.137 389.892 281.609 331.918 281.609 331.918" stroke="#3B1F43" stroke-width="7.25575" stroke-linecap="round"/>
<path d="M222.51 259.288H188.649" stroke="#3B1F43" stroke-width="7.25575" stroke-linecap="round"/>
<path d="M222.509 306.654C239.488 306.654 254.679 309.574 265.482 314.144C270.891 316.432 275.021 319.059 277.742 321.781C280.447 324.487 281.561 327.067 281.561 329.427C281.561 331.787 280.447 334.368 277.742 337.074C275.021 339.795 270.891 342.422 265.482 344.71C254.679 349.281 239.488 352.2 222.509 352.2C205.531 352.2 190.34 349.281 179.538 344.71C174.129 342.422 169.999 339.795 167.278 337.074C164.572 334.367 163.458 331.787 163.458 329.427C163.458 327.067 164.572 324.487 167.278 321.781C169.999 319.059 174.129 316.432 179.538 314.144C190.34 309.574 205.531 306.654 222.509 306.654Z" stroke="#3B1F43" stroke-width="7.66284"/>
<path d="M174.138 213.335H155.999H142.696C140.025 213.335 137.859 211.17 137.859 208.498V206.079C137.859 192.722 148.688 181.894 162.045 181.894H249.114" stroke="#3B1F43" stroke-width="7.25575" stroke-linecap="round"/>
<path d="M163.254 310.079C163.254 312.082 164.879 313.706 166.882 313.706C168.886 313.706 170.51 312.082 170.51 310.079H166.882H163.254ZM163.092 186.307L160.915 189.209L163.092 186.307ZM174.138 207.941H170.51V238.371H174.138H177.766V207.941H174.138ZM173.085 251.095L169.506 250.499L164.686 279.422L168.264 280.019L171.843 280.615L176.663 251.691L173.085 251.095ZM166.882 296.718H163.254V310.079H166.882H170.51V296.718H166.882ZM157.208 181.894L155.031 184.796L160.915 189.209L163.092 186.307L165.269 183.405L159.385 178.991L157.208 181.894ZM169.32 193.212L166.209 195.078L167.58 197.364L170.691 195.498L173.802 193.631L172.431 191.345L169.32 193.212ZM163.092 186.307L160.915 189.209C163.043 190.805 164.841 192.798 166.209 195.078L169.32 193.212L172.431 191.345C170.579 188.26 168.147 185.563 165.269 183.405L163.092 186.307ZM168.264 280.019L164.686 279.422C163.733 285.138 163.254 290.923 163.254 296.718H166.882H170.51C170.51 291.323 170.956 285.937 171.843 280.615L168.264 280.019ZM174.138 238.371H170.51C170.51 242.435 170.174 246.491 169.506 250.499L173.085 251.095L176.663 251.691C177.397 247.289 177.766 242.834 177.766 238.371H174.138ZM174.138 207.941H177.766C177.766 202.9 176.396 197.954 173.802 193.631L170.691 195.498L167.58 197.364C169.497 200.559 170.51 204.215 170.51 207.941H174.138Z" fill="#3B1F43"/>
<circle cx="241.858" cy="242.358" r="223.719" stroke="#4A2E51" stroke-width="7.25575"/>
</svg>
